<svg id="Layer_1" data-name="Layer 1" xmlns="http://www.w3.org/2000/svg" viewBox="0 0 160 160"><defs><style>.cls-1{fill:#dddedf;}.cls-2{fill:#757c7e;}.cls-3{fill:#535b5e;}.cls-4{fill:#989d9e;}</style></defs><title>default_profile</title><circle id="circle" class="cls-1" cx="80" cy="80" r="80"/><path class="cls-2" d="M141.45,132.28c-8.18-2.1-20.89-5.41-28.69-7.46-3.84-1-11.26-2.88-11.26-9.28V104.88h-42v10.66c0,6.4-7.42,8.32-11.26,9.28-7.81,2.05-20.57,5.36-28.74,7.46A80,80,0,0,0,141.45,132.28Z" transform="translate(-0.5 -0.5)"/><path class="cls-3" d="M59.5,110c7,9.58,15.21,13.87,20.84,13.87h1c5.44,0,14.2-4.06,20.2-12.94v-6.06h-42V110Z" transform="translate(-0.5 -0.5)"/><path id="head" class="cls-4" d="M79.86,26.1c30.56,0,33.12,22.08,33.28,24.16,1.76,19-4.8,45-10.88,53.92-6.4,9.44-15.68,13-21.6,13.28h-0.8c-6.08-.48-15.36-4-21.76-13.44-6.08-9-12.64-34.88-10.88-54.08C47.38,48,49.3,26.1,79.86,26.1Z" transform="translate(-0.5 -0.5)"/></svg>