<svg id="Layer_1" data-name="Layer 1" xmlns="http://www.w3.org/2000/svg" viewBox="0 0 152.7 42.08"><defs><style>.cls-1{fill:#0578d6;}</style></defs><title>versus_logo_header</title><path class="cls-1" d="M47.19,34.25A10.09,10.09,0,0,0,57.31,24,10.19,10.19,0,0,0,47.19,13.32H31.13l0-3a8.9,8.9,0,1,0-8.9,8.9h25c0.17,0,4.18.05,4.18,4.71a4.21,4.21,0,0,1-4.18,4.33H40.53v-6H34.59V35.71a7.53,7.53,0,0,0,7.52,7.52H56.82V37.28H42.11a1.57,1.57,0,0,1-1.57-1.57V34.25h6.66Zm-25-20.93a3,3,0,1,1,3-2.93l0,2.93h-3Zm-5.93,22.4C8.84,28.48,7.09,17.22,7.09,13.57H1.15c0,7.29,3.57,20.9,13.41,28.54a3,3,0,0,0,3.8-.13A38.71,38.71,0,0,0,29.93,22.3H23.78A33,33,0,0,1,16.27,35.72Zm137.41-3.26c-0.57-2.81-1.54-5.19-5.25-10.41a54.38,54.38,0,0,0-7.65-8.69,3,3,0,0,0-2-.73h-5s0,2.18,0,2.75a25.29,25.29,0,0,1-3.38,11.22,26.56,26.56,0,0,1-1.66,2.55V13.44h-5.94V34.77a21.21,21.21,0,0,1-2.41,1.33,6.82,6.82,0,0,1-2.9.79,5.62,5.62,0,0,1-5.61-5.61V13.44H106V31.28a11.57,11.57,0,0,0,11.56,11.56,12.64,12.64,0,0,0,5.3-1.3v1.38h5.94V37.78a29.89,29.89,0,0,0,6.82-8.21,30.79,30.79,0,0,0,3.59-9.43,52,52,0,0,1,4.4,5.37c3.4,4.78,3.91,6.39,4.27,8.14a2.78,2.78,0,0,1-.58,2.23,4.45,4.45,0,0,1-3.12,1.7A4.25,4.25,0,0,1,141,36.5a3.32,3.32,0,0,1-1.14-2.38l-5.94.09A9.17,9.17,0,0,0,137,40.9a10.16,10.16,0,0,0,6.82,2.64q0.4,0,.8,0a10.42,10.42,0,0,0,7.39-4A8.65,8.65,0,0,0,153.68,32.47ZM99.86,22.06a54.33,54.33,0,0,0-7.65-8.69,3,3,0,0,0-2-.73h-5.1s0,3.19,0,3.51a21.63,21.63,0,0,1-4.77,12.29,31.26,31.26,0,0,1-9.85,8.23c-1.72.86-3.89-.14-5.18-1.42-0.57-.57-2-3.27-0.32-5.19L78.77,20a3.71,3.71,0,0,0-2.2-6.71H58.12V19.2H69.77l-8.45,6.21a3,3,0,0,0-.34.29,9.14,9.14,0,0,0-2.61,7.78,10.54,10.54,0,0,0,2.8,6c3.41,3.41,8.25,4.43,12,2.54A37.19,37.19,0,0,0,85,32.23a25.68,25.68,0,0,0,5.63-12.11A51.88,51.88,0,0,1,95,25.51c2.24,3.15,3.37,5.1,3.91,6.75a4,4,0,0,1-2.33,5.11,4.16,4.16,0,0,1-3.74-.54,3.39,3.39,0,0,1-1.54-2.7l-5.94.09a9.26,9.26,0,0,0,4.08,7.48,10.17,10.17,0,0,0,5.82,1.83,9.84,9.84,0,0,0,9.31-13.13C103.83,28.12,102.51,25.78,99.86,22.06Z" transform="translate(-1.15 -1.46)"/></svg>