<svg xmlns="http://www.w3.org/2000/svg" viewBox="0 0 152.7 42.08"><defs><style>.cls-1{fill:#0578d6;}</style></defs><title>versus_logo_header</title><path class="cls-1" d="M47.19 34.25a10.09 10.09 0 0 0 10.12-10.25 10.19 10.19 0 0 0-10.12-10.68h-16.06v-3a8.9 8.9 0 1 0-8.9 8.9h25c.17 0 4.18.05 4.18 4.71a4.21 4.21 0 0 1-4.18 4.33h-6.7v-6h-5.94v13.45a7.53 7.53 0 0 0 7.52 7.52h14.71v-5.95h-14.71a1.57 1.57 0 0 1-1.57-1.57v-1.46h6.66zm-25-20.93a3 3 0 1 1 3-2.93v2.93h-3zm-5.93 22.4c-7.42-7.24-9.17-18.5-9.17-22.15h-5.94c0 7.29 3.57 20.9 13.41 28.54a3 3 0 0 0 3.8-.13 38.71 38.71 0 0 0 11.57-19.68h-6.15a33 33 0 0 1-7.51 13.42zm137.41-3.26c-.57-2.81-1.54-5.19-5.25-10.41a54.38 54.38 0 0 0-7.65-8.69 3 3 0 0 0-2-.73h-5v2.75a25.29 25.29 0 0 1-3.38 11.22 26.56 26.56 0 0 1-1.66 2.55v-15.71h-5.94v21.33a21.21 21.21 0 0 1-2.41 1.33 6.82 6.82 0 0 1-2.9.79 5.62 5.62 0 0 1-5.61-5.61v-17.84h-5.87v17.84a11.57 11.57 0 0 0 11.56 11.56 12.64 12.64 0 0 0 5.3-1.3v1.38h5.94v-5.14a29.89 29.89 0 0 0 6.82-8.21 30.79 30.79 0 0 0 3.59-9.43 52 52 0 0 1 4.4 5.37c3.4 4.78 3.91 6.39 4.27 8.14a2.78 2.78 0 0 1-.58 2.23 4.45 4.45 0 0 1-3.12 1.7 4.25 4.25 0 0 1-3.18-1.08 3.32 3.32 0 0 1-1.14-2.38l-5.94.09a9.17 9.17 0 0 0 3.08 6.69 10.16 10.16 0 0 0 6.82 2.64h.8a10.42 10.42 0 0 0 7.39-4 8.65 8.65 0 0 0 1.67-7.07zm-53.81-10.4a54.33 54.33 0 0 0-7.65-8.69 3 3 0 0 0-2-.73h-5.1v3.51a21.63 21.63 0 0 1-4.77 12.29 31.26 31.26 0 0 1-9.85 8.23c-1.72.86-3.89-.14-5.18-1.42-.57-.57-2-3.27-.32-5.19l13.78-10.06a3.71 3.71 0 0 0-2.2-6.71h-18.45v5.91h11.65l-8.45 6.21a3 3 0 0 0-.34.29 9.14 9.14 0 0 0-2.61 7.78 10.54 10.54 0 0 0 2.8 6c3.41 3.41 8.25 4.43 12 2.54a37.19 37.19 0 0 0 11.83-9.79 25.68 25.68 0 0 0 5.63-12.11 51.88 51.88 0 0 1 4.37 5.39c2.24 3.15 3.37 5.1 3.91 6.75a4 4 0 0 1-2.33 5.11 4.16 4.16 0 0 1-3.74-.54 3.39 3.39 0 0 1-1.54-2.7l-5.94.09a9.26 9.26 0 0 0 4.08 7.48 10.17 10.17 0 0 0 5.82 1.83 9.84 9.84 0 0 0 9.31-13.13c-.74-2.28-2.06-4.62-4.71-8.34z" transform="translate(-1.15 -1.46)"/></svg>